<mxfile host="app.diagrams.net" agent="Mozilla/5.0 (Windows NT 10.0; Win64; x64) AppleWebKit/537.36 (KHTML, like Gecko) Chrome/126.0.0.0 YaBrowser/24.7.0.0 Safari/537.36" version="24.7.16">
  <diagram name="Страница — 1" id="w-v3uZHT-PmhJ25dNYRP">
    <mxGraphModel dx="1158" dy="644" grid="1" gridSize="10" guides="1" tooltips="1" connect="1" arrows="1" fold="1" page="1" pageScale="1" pageWidth="827" pageHeight="1169" math="0" shadow="0">
      <root>
        <mxCell id="0" />
        <mxCell id="1" parent="0" />
        <mxCell id="bX7_wVVaBSQ1lEUmstR0-61" value="" style="endArrow=none;dashed=1;html=1;rounded=0;" edge="1" parent="1">
          <mxGeometry width="50" height="50" relative="1" as="geometry">
            <mxPoint x="450" y="500" as="sourcePoint" />
            <mxPoint x="450" y="80" as="targetPoint" />
          </mxGeometry>
        </mxCell>
        <mxCell id="bX7_wVVaBSQ1lEUmstR0-1" value="" style="endArrow=none;html=1;rounded=0;" edge="1" parent="1">
          <mxGeometry width="50" height="50" relative="1" as="geometry">
            <mxPoint x="479.71" y="500" as="sourcePoint" />
            <mxPoint x="479.71" y="100" as="targetPoint" />
          </mxGeometry>
        </mxCell>
        <mxCell id="bX7_wVVaBSQ1lEUmstR0-2" value="" style="endArrow=none;html=1;rounded=0;" edge="1" parent="1">
          <mxGeometry width="50" height="50" relative="1" as="geometry">
            <mxPoint x="559.71" y="500" as="sourcePoint" />
            <mxPoint x="559.71" y="100" as="targetPoint" />
          </mxGeometry>
        </mxCell>
        <mxCell id="bX7_wVVaBSQ1lEUmstR0-3" value="" style="endArrow=none;html=1;rounded=0;" edge="1" parent="1">
          <mxGeometry width="50" height="50" relative="1" as="geometry">
            <mxPoint x="720" y="480" as="sourcePoint" />
            <mxPoint x="720" y="50" as="targetPoint" />
          </mxGeometry>
        </mxCell>
        <mxCell id="bX7_wVVaBSQ1lEUmstR0-4" value="&lt;font style=&quot;font-size: 8px;&quot;&gt;release_pe&lt;/font&gt;" style="text;html=1;align=center;verticalAlign=middle;whiteSpace=wrap;rounded=0;" vertex="1" parent="1">
          <mxGeometry x="610" y="20" width="60" height="30" as="geometry" />
        </mxCell>
        <mxCell id="bX7_wVVaBSQ1lEUmstR0-5" value="&lt;font style=&quot;font-size: 8px;&quot;&gt;release_oe&lt;/font&gt;" style="text;html=1;align=center;verticalAlign=middle;whiteSpace=wrap;rounded=0;" vertex="1" parent="1">
          <mxGeometry x="530" y="20" width="60" height="30" as="geometry" />
        </mxCell>
        <mxCell id="bX7_wVVaBSQ1lEUmstR0-6" value="&lt;font style=&quot;font-size: 8px;&quot;&gt;test&lt;/font&gt;&lt;div&gt;&lt;font style=&quot;font-size: 8px;&quot;&gt;(develop)&lt;/font&gt;&lt;/div&gt;" style="text;html=1;align=center;verticalAlign=middle;whiteSpace=wrap;rounded=0;" vertex="1" parent="1">
          <mxGeometry x="450" y="20" width="60" height="30" as="geometry" />
        </mxCell>
        <mxCell id="bX7_wVVaBSQ1lEUmstR0-7" value="" style="endArrow=classic;html=1;rounded=0;" edge="1" parent="1">
          <mxGeometry width="50" height="50" relative="1" as="geometry">
            <mxPoint x="720" y="70" as="sourcePoint" />
            <mxPoint x="560" y="100" as="targetPoint" />
          </mxGeometry>
        </mxCell>
        <mxCell id="bX7_wVVaBSQ1lEUmstR0-8" value="" style="endArrow=classic;html=1;rounded=0;" edge="1" parent="1">
          <mxGeometry width="50" height="50" relative="1" as="geometry">
            <mxPoint x="720" y="60" as="sourcePoint" />
            <mxPoint x="480" y="100" as="targetPoint" />
          </mxGeometry>
        </mxCell>
        <mxCell id="bX7_wVVaBSQ1lEUmstR0-9" value="&lt;div&gt;&lt;font style=&quot;font-size: 8px;&quot;&gt;main&lt;/font&gt;&lt;/div&gt;" style="text;html=1;align=center;verticalAlign=middle;whiteSpace=wrap;rounded=0;" vertex="1" parent="1">
          <mxGeometry x="690" y="20" width="60" height="30" as="geometry" />
        </mxCell>
        <mxCell id="bX7_wVVaBSQ1lEUmstR0-10" value="" style="endArrow=none;html=1;rounded=0;" edge="1" parent="1">
          <mxGeometry width="50" height="50" relative="1" as="geometry">
            <mxPoint x="639.71" y="500" as="sourcePoint" />
            <mxPoint x="639.71" y="100" as="targetPoint" />
          </mxGeometry>
        </mxCell>
        <mxCell id="bX7_wVVaBSQ1lEUmstR0-11" value="" style="endArrow=classic;html=1;rounded=0;" edge="1" parent="1">
          <mxGeometry width="50" height="50" relative="1" as="geometry">
            <mxPoint x="720" y="80" as="sourcePoint" />
            <mxPoint x="640" y="100" as="targetPoint" />
          </mxGeometry>
        </mxCell>
        <mxCell id="bX7_wVVaBSQ1lEUmstR0-12" value="" style="endArrow=none;html=1;rounded=0;" edge="1" parent="1" source="bX7_wVVaBSQ1lEUmstR0-15">
          <mxGeometry width="50" height="50" relative="1" as="geometry">
            <mxPoint x="400" y="510" as="sourcePoint" />
            <mxPoint x="400" y="130" as="targetPoint" />
          </mxGeometry>
        </mxCell>
        <mxCell id="bX7_wVVaBSQ1lEUmstR0-13" value="&lt;font style=&quot;font-size: 8px;&quot;&gt;feature-000&lt;/font&gt;" style="text;html=1;align=center;verticalAlign=middle;whiteSpace=wrap;rounded=0;" vertex="1" parent="1">
          <mxGeometry x="370" y="25" width="70" height="20" as="geometry" />
        </mxCell>
        <mxCell id="bX7_wVVaBSQ1lEUmstR0-14" value="" style="endArrow=classic;html=1;rounded=0;" edge="1" parent="1">
          <mxGeometry width="50" height="50" relative="1" as="geometry">
            <mxPoint x="480" y="110" as="sourcePoint" />
            <mxPoint x="400" y="130" as="targetPoint" />
          </mxGeometry>
        </mxCell>
        <mxCell id="bX7_wVVaBSQ1lEUmstR0-16" value="" style="endArrow=none;html=1;rounded=0;" edge="1" parent="1" source="bX7_wVVaBSQ1lEUmstR0-17" target="bX7_wVVaBSQ1lEUmstR0-15">
          <mxGeometry width="50" height="50" relative="1" as="geometry">
            <mxPoint x="400" y="510" as="sourcePoint" />
            <mxPoint x="400" y="130" as="targetPoint" />
          </mxGeometry>
        </mxCell>
        <mxCell id="bX7_wVVaBSQ1lEUmstR0-15" value="" style="ellipse;whiteSpace=wrap;html=1;" vertex="1" parent="1">
          <mxGeometry x="390" y="140" width="20" height="20" as="geometry" />
        </mxCell>
        <mxCell id="bX7_wVVaBSQ1lEUmstR0-18" value="" style="endArrow=none;html=1;rounded=0;" edge="1" parent="1" target="bX7_wVVaBSQ1lEUmstR0-17">
          <mxGeometry width="50" height="50" relative="1" as="geometry">
            <mxPoint x="400" y="250" as="sourcePoint" />
            <mxPoint x="400" y="150" as="targetPoint" />
          </mxGeometry>
        </mxCell>
        <mxCell id="bX7_wVVaBSQ1lEUmstR0-17" value="" style="ellipse;whiteSpace=wrap;html=1;" vertex="1" parent="1">
          <mxGeometry x="390" y="180" width="20" height="20" as="geometry" />
        </mxCell>
        <mxCell id="bX7_wVVaBSQ1lEUmstR0-19" value="" style="endArrow=none;html=1;rounded=0;exitX=0.5;exitY=0;exitDx=0;exitDy=0;" edge="1" parent="1">
          <mxGeometry width="50" height="50" relative="1" as="geometry">
            <mxPoint x="320" y="280" as="sourcePoint" />
            <mxPoint x="320" y="220" as="targetPoint" />
          </mxGeometry>
        </mxCell>
        <mxCell id="bX7_wVVaBSQ1lEUmstR0-20" value="&lt;font style=&quot;font-size: 8px;&quot;&gt;features/&lt;/font&gt;&lt;div&gt;&lt;font style=&quot;font-size: 8px;&quot;&gt;feature-000&lt;/font&gt;&lt;/div&gt;" style="text;html=1;align=center;verticalAlign=middle;whiteSpace=wrap;rounded=0;" vertex="1" parent="1">
          <mxGeometry x="300" y="20" width="50" height="30" as="geometry" />
        </mxCell>
        <mxCell id="bX7_wVVaBSQ1lEUmstR0-21" value="" style="endArrow=classic;html=1;rounded=0;" edge="1" parent="1">
          <mxGeometry width="50" height="50" relative="1" as="geometry">
            <mxPoint x="720" y="170" as="sourcePoint" />
            <mxPoint x="320" y="220" as="targetPoint" />
          </mxGeometry>
        </mxCell>
        <mxCell id="bX7_wVVaBSQ1lEUmstR0-24" value="" style="endArrow=none;dashed=1;html=1;dashPattern=1 3;strokeWidth=2;rounded=0;startArrow=classicThin;startFill=1;entryX=0;entryY=0.5;entryDx=0;entryDy=0;exitX=1;exitY=0;exitDx=0;exitDy=0;" edge="1" parent="1" source="bX7_wVVaBSQ1lEUmstR0-35" target="bX7_wVVaBSQ1lEUmstR0-15">
          <mxGeometry width="50" height="50" relative="1" as="geometry">
            <mxPoint x="327.0710678118653" y="232.92893218813458" as="sourcePoint" />
            <mxPoint x="395" y="140" as="targetPoint" />
          </mxGeometry>
        </mxCell>
        <mxCell id="bX7_wVVaBSQ1lEUmstR0-33" value="" style="ellipse;whiteSpace=wrap;html=1;" vertex="1" parent="1">
          <mxGeometry x="20" y="50" width="20" height="20" as="geometry" />
        </mxCell>
        <mxCell id="bX7_wVVaBSQ1lEUmstR0-35" value="" style="ellipse;whiteSpace=wrap;html=1;" vertex="1" parent="1">
          <mxGeometry x="310" y="240" width="20" height="20" as="geometry" />
        </mxCell>
        <mxCell id="bX7_wVVaBSQ1lEUmstR0-36" value="" style="endArrow=none;dashed=1;html=1;dashPattern=1 3;strokeWidth=2;rounded=0;startArrow=classicThin;startFill=1;entryX=0.017;entryY=0.667;entryDx=0;entryDy=0;exitX=1;exitY=0;exitDx=0;exitDy=0;entryPerimeter=0;" edge="1" parent="1" source="bX7_wVVaBSQ1lEUmstR0-35" target="bX7_wVVaBSQ1lEUmstR0-17">
          <mxGeometry width="50" height="50" relative="1" as="geometry">
            <mxPoint x="327" y="270" as="sourcePoint" />
            <mxPoint x="390" y="187" as="targetPoint" />
          </mxGeometry>
        </mxCell>
        <mxCell id="bX7_wVVaBSQ1lEUmstR0-37" value="&lt;font style=&quot;font-size: 8px;&quot;&gt;git branch&lt;/font&gt;" style="text;html=1;align=center;verticalAlign=middle;whiteSpace=wrap;rounded=0;" vertex="1" parent="1">
          <mxGeometry x="20" y="10" width="40" height="10" as="geometry" />
        </mxCell>
        <mxCell id="bX7_wVVaBSQ1lEUmstR0-40" value="&lt;font style=&quot;font-size: 8px;&quot;&gt;git branch&lt;/font&gt;" style="text;html=1;align=center;verticalAlign=middle;whiteSpace=wrap;rounded=0;rotation=0;" vertex="1" parent="1">
          <mxGeometry x="720" y="60" width="40" height="10" as="geometry" />
        </mxCell>
        <mxCell id="bX7_wVVaBSQ1lEUmstR0-41" value="&lt;font style=&quot;font-size: 8px;&quot;&gt;git branch&lt;/font&gt;" style="text;html=1;align=center;verticalAlign=middle;whiteSpace=wrap;rounded=0;rotation=0;" vertex="1" parent="1">
          <mxGeometry x="480" y="100" width="40" height="10" as="geometry" />
        </mxCell>
        <mxCell id="bX7_wVVaBSQ1lEUmstR0-42" value="&lt;font style=&quot;font-size: 8px;&quot;&gt;git branch&lt;/font&gt;" style="text;html=1;align=center;verticalAlign=middle;whiteSpace=wrap;rounded=0;rotation=0;" vertex="1" parent="1">
          <mxGeometry x="720" y="160" width="40" height="10" as="geometry" />
        </mxCell>
        <mxCell id="bX7_wVVaBSQ1lEUmstR0-43" value="&lt;font style=&quot;font-size: 8px;&quot;&gt;git cherry-pick&lt;/font&gt;&lt;div&gt;&lt;span style=&quot;font-size: 8px;&quot;&gt;or&lt;br&gt;&lt;/span&gt;&lt;div&gt;&lt;font style=&quot;font-size: 8px;&quot;&gt;git rebase&lt;/font&gt;&lt;/div&gt;&lt;/div&gt;" style="text;html=1;align=center;verticalAlign=middle;whiteSpace=wrap;rounded=0;rotation=0;" vertex="1" parent="1">
          <mxGeometry x="225" y="225" width="90" height="50" as="geometry" />
        </mxCell>
        <mxCell id="bX7_wVVaBSQ1lEUmstR0-44" value="" style="ellipse;whiteSpace=wrap;html=1;fillColor=#000000;" vertex="1" parent="1">
          <mxGeometry x="20" y="80" width="10" height="10" as="geometry" />
        </mxCell>
        <mxCell id="bX7_wVVaBSQ1lEUmstR0-47" value="" style="endArrow=none;html=1;rounded=0;" edge="1" parent="1">
          <mxGeometry width="50" height="50" relative="1" as="geometry">
            <mxPoint x="320" y="290" as="sourcePoint" />
            <mxPoint x="320" y="290" as="targetPoint" />
          </mxGeometry>
        </mxCell>
        <mxCell id="bX7_wVVaBSQ1lEUmstR0-48" value="" style="endArrow=classic;html=1;rounded=0;entryX=0;entryY=0.5;entryDx=0;entryDy=0;" edge="1" parent="1" target="bX7_wVVaBSQ1lEUmstR0-53">
          <mxGeometry width="50" height="50" relative="1" as="geometry">
            <mxPoint x="320" y="280" as="sourcePoint" />
            <mxPoint x="430" y="300" as="targetPoint" />
          </mxGeometry>
        </mxCell>
        <mxCell id="bX7_wVVaBSQ1lEUmstR0-50" value="" style="endArrow=none;html=1;rounded=0;" edge="1" parent="1" source="bX7_wVVaBSQ1lEUmstR0-53">
          <mxGeometry width="50" height="50" relative="1" as="geometry">
            <mxPoint x="450" y="340" as="sourcePoint" />
            <mxPoint x="450" y="280" as="targetPoint" />
          </mxGeometry>
        </mxCell>
        <mxCell id="bX7_wVVaBSQ1lEUmstR0-51" value="" style="endArrow=classic;html=1;rounded=0;" edge="1" parent="1">
          <mxGeometry width="50" height="50" relative="1" as="geometry">
            <mxPoint x="480" y="260" as="sourcePoint" />
            <mxPoint x="450" y="280" as="targetPoint" />
          </mxGeometry>
        </mxCell>
        <mxCell id="bX7_wVVaBSQ1lEUmstR0-52" value="&lt;font style=&quot;font-size: 8px;&quot;&gt;git branch&lt;/font&gt;" style="text;html=1;align=center;verticalAlign=middle;whiteSpace=wrap;rounded=0;rotation=0;" vertex="1" parent="1">
          <mxGeometry x="480" y="250" width="40" height="10" as="geometry" />
        </mxCell>
        <mxCell id="bX7_wVVaBSQ1lEUmstR0-54" value="" style="endArrow=none;html=1;rounded=0;" edge="1" parent="1" target="bX7_wVVaBSQ1lEUmstR0-53">
          <mxGeometry width="50" height="50" relative="1" as="geometry">
            <mxPoint x="450" y="330" as="sourcePoint" />
            <mxPoint x="450" y="280" as="targetPoint" />
          </mxGeometry>
        </mxCell>
        <mxCell id="bX7_wVVaBSQ1lEUmstR0-53" value="" style="ellipse;whiteSpace=wrap;html=1;" vertex="1" parent="1">
          <mxGeometry x="440" y="290" width="20" height="20" as="geometry" />
        </mxCell>
        <mxCell id="bX7_wVVaBSQ1lEUmstR0-55" value="&lt;font style=&quot;font-size: 8px;&quot;&gt;git merge&lt;/font&gt;" style="text;html=1;align=center;verticalAlign=middle;whiteSpace=wrap;rounded=0;rotation=0;" vertex="1" parent="1">
          <mxGeometry x="20" y="20" width="40" height="10" as="geometry" />
        </mxCell>
        <mxCell id="bX7_wVVaBSQ1lEUmstR0-56" value="&lt;font style=&quot;font-size: 8px;&quot;&gt;git merge&lt;/font&gt;" style="text;html=1;align=center;verticalAlign=middle;whiteSpace=wrap;rounded=0;rotation=0;" vertex="1" parent="1">
          <mxGeometry x="410" y="280" width="40" height="10" as="geometry" />
        </mxCell>
        <mxCell id="bX7_wVVaBSQ1lEUmstR0-57" value="" style="endArrow=classic;html=1;rounded=0;" edge="1" parent="1" source="bX7_wVVaBSQ1lEUmstR0-58">
          <mxGeometry width="50" height="50" relative="1" as="geometry">
            <mxPoint x="450" y="330" as="sourcePoint" />
            <mxPoint x="480" y="340" as="targetPoint" />
          </mxGeometry>
        </mxCell>
        <mxCell id="bX7_wVVaBSQ1lEUmstR0-59" value="" style="endArrow=classic;html=1;rounded=0;" edge="1" parent="1" target="bX7_wVVaBSQ1lEUmstR0-58">
          <mxGeometry width="50" height="50" relative="1" as="geometry">
            <mxPoint x="450" y="330" as="sourcePoint" />
            <mxPoint x="480" y="340" as="targetPoint" />
          </mxGeometry>
        </mxCell>
        <mxCell id="bX7_wVVaBSQ1lEUmstR0-58" value="" style="ellipse;whiteSpace=wrap;html=1;" vertex="1" parent="1">
          <mxGeometry x="470" y="330" width="20" height="20" as="geometry" />
        </mxCell>
        <mxCell id="bX7_wVVaBSQ1lEUmstR0-60" value="&lt;font style=&quot;font-size: 8px;&quot;&gt;git merge&lt;/font&gt;" style="text;html=1;align=center;verticalAlign=middle;whiteSpace=wrap;rounded=0;rotation=0;" vertex="1" parent="1">
          <mxGeometry x="430" y="335" width="40" height="10" as="geometry" />
        </mxCell>
        <mxCell id="bX7_wVVaBSQ1lEUmstR0-62" value="&lt;font style=&quot;font-size: 8px;&quot;&gt;temp/test/feature-000&lt;/font&gt;" style="text;html=1;align=center;verticalAlign=middle;whiteSpace=wrap;rounded=0;" vertex="1" parent="1">
          <mxGeometry x="410" y="60" width="84" height="20" as="geometry" />
        </mxCell>
        <mxCell id="bX7_wVVaBSQ1lEUmstR0-63" value="a" style="text;html=1;align=center;verticalAlign=middle;whiteSpace=wrap;rounded=0;" vertex="1" parent="1">
          <mxGeometry x="395" y="145" width="10" height="10" as="geometry" />
        </mxCell>
        <mxCell id="bX7_wVVaBSQ1lEUmstR0-64" value="a" style="text;html=1;align=center;verticalAlign=middle;whiteSpace=wrap;rounded=0;" vertex="1" parent="1">
          <mxGeometry x="20" y="105" width="10" height="10" as="geometry" />
        </mxCell>
        <mxCell id="bX7_wVVaBSQ1lEUmstR0-65" value="b" style="text;html=1;align=center;verticalAlign=middle;whiteSpace=wrap;rounded=0;" vertex="1" parent="1">
          <mxGeometry x="395" y="185" width="10" height="10" as="geometry" />
        </mxCell>
        <mxCell id="bX7_wVVaBSQ1lEUmstR0-66" value="a&#39;" style="text;html=1;align=center;verticalAlign=middle;whiteSpace=wrap;rounded=0;" vertex="1" parent="1">
          <mxGeometry x="315" y="245" width="10" height="10" as="geometry" />
        </mxCell>
        <mxCell id="bX7_wVVaBSQ1lEUmstR0-68" value="&lt;font style=&quot;font-size: 10px;&quot;&gt;m1&lt;/font&gt;" style="text;html=1;align=center;verticalAlign=middle;whiteSpace=wrap;rounded=0;" vertex="1" parent="1">
          <mxGeometry x="445" y="295" width="10" height="10" as="geometry" />
        </mxCell>
        <mxCell id="bX7_wVVaBSQ1lEUmstR0-69" value="&lt;font style=&quot;font-size: 10px;&quot;&gt;m1&lt;/font&gt;" style="text;html=1;align=center;verticalAlign=middle;whiteSpace=wrap;rounded=0;" vertex="1" parent="1">
          <mxGeometry x="20" y="120" width="10" height="10" as="geometry" />
        </mxCell>
        <mxCell id="bX7_wVVaBSQ1lEUmstR0-70" value="&lt;font style=&quot;font-size: 10px;&quot;&gt;m2&lt;/font&gt;" style="text;html=1;align=center;verticalAlign=middle;whiteSpace=wrap;rounded=0;" vertex="1" parent="1">
          <mxGeometry x="475" y="335" width="10" height="10" as="geometry" />
        </mxCell>
        <mxCell id="bX7_wVVaBSQ1lEUmstR0-72" value="&lt;ul&gt;&lt;li&gt;&lt;font style=&quot;font-size: 10px;&quot;&gt;main - the most stable branch&lt;/font&gt;&lt;/li&gt;&lt;li&gt;&lt;font style=&quot;font-size: 10px;&quot;&gt;test, release_oe, release_pe - any release branch, that branched from &lt;b&gt;main&lt;/b&gt;&lt;/font&gt;&lt;/li&gt;&lt;/ul&gt;" style="text;html=1;align=left;verticalAlign=middle;whiteSpace=wrap;rounded=0;" vertex="1" parent="1">
          <mxGeometry x="10" y="160" width="150" height="195" as="geometry" />
        </mxCell>
      </root>
    </mxGraphModel>
  </diagram>
</mxfile>
